<mxfile host="app.diagrams.net" agent="Mozilla/5.0 (Windows NT 10.0; Win64; x64) AppleWebKit/537.36 (KHTML, like Gecko) Chrome/131.0.0.0 Safari/537.36" version="25.0.3">
  <diagram name="Página-1" id="4pv95cJ7HGYNk3vX7boJ">
    <mxGraphModel dx="2547" dy="3081" grid="1" gridSize="10" guides="1" tooltips="1" connect="1" arrows="1" fold="1" page="1" pageScale="1" pageWidth="827" pageHeight="1169" math="0" shadow="0">
      <root>
        <mxCell id="0" />
        <mxCell id="1" parent="0" />
        <mxCell id="hmGg0dzksIjPbcyvo-WP-7" value="&lt;font style=&quot;font-size: 15px;&quot;&gt;US16_3 Como encargado de dirección quiero ser capaz de modificar campos al crear una plantilla de formulario para poder corregir errores de manera fácil&lt;/font&gt;" style="text;html=1;align=center;verticalAlign=middle;resizable=0;points=[];autosize=1;strokeColor=none;fillColor=none;" parent="1" vertex="1">
          <mxGeometry x="40" y="-1740" width="1060" height="30" as="geometry" />
        </mxCell>
        <mxCell id="VmlftcJI-n3ChJxppmFd-43" value="&lt;font style=&quot;font-size: 14px;&quot;&gt;Interfaz Anfitrion&lt;/font&gt;" style="rounded=1;whiteSpace=wrap;html=1;" parent="1" vertex="1">
          <mxGeometry x="243.75" y="-1660" width="120" height="60" as="geometry" />
        </mxCell>
        <mxCell id="VmlftcJI-n3ChJxppmFd-44" value="" style="endArrow=none;html=1;rounded=0;entryX=0.5;entryY=1;entryDx=0;entryDy=0;" parent="1" target="VmlftcJI-n3ChJxppmFd-43" edge="1">
          <mxGeometry width="50" height="50" relative="1" as="geometry">
            <mxPoint x="304" y="-1360" as="sourcePoint" />
            <mxPoint x="493.75" y="-1320" as="targetPoint" />
          </mxGeometry>
        </mxCell>
        <mxCell id="VmlftcJI-n3ChJxppmFd-45" value="&lt;font style=&quot;font-size: 18px;&quot;&gt;Anfitrión&lt;/font&gt;" style="shape=umlActor;verticalLabelPosition=bottom;verticalAlign=top;html=1;outlineConnect=0;" parent="1" vertex="1">
          <mxGeometry x="20" y="-1680" width="50" height="80" as="geometry" />
        </mxCell>
        <mxCell id="VmlftcJI-n3ChJxppmFd-46" value="" style="endArrow=none;html=1;rounded=0;entryX=0.5;entryY=1;entryDx=0;entryDy=0;" parent="1" edge="1">
          <mxGeometry width="50" height="50" relative="1" as="geometry">
            <mxPoint x="45" y="-740" as="sourcePoint" />
            <mxPoint x="44.5" y="-1570" as="targetPoint" />
          </mxGeometry>
        </mxCell>
        <mxCell id="VmlftcJI-n3ChJxppmFd-47" value="" style="rounded=1;whiteSpace=wrap;html=1;rotation=90;" parent="1" vertex="1">
          <mxGeometry x="-330.58" y="-1176.91" width="750.11" height="18.97" as="geometry" />
        </mxCell>
        <mxCell id="VmlftcJI-n3ChJxppmFd-48" value="" style="endArrow=none;html=1;rounded=0;" parent="1" edge="1">
          <mxGeometry width="50" height="50" relative="1" as="geometry">
            <mxPoint x="303.75" y="-1410" as="sourcePoint" />
            <mxPoint x="300" y="-800" as="targetPoint" />
          </mxGeometry>
        </mxCell>
        <mxCell id="VmlftcJI-n3ChJxppmFd-51" value="&lt;span style=&quot;font-size: 14px;&quot;&gt;Async Storage&lt;/span&gt;" style="rounded=1;whiteSpace=wrap;html=1;" parent="1" vertex="1">
          <mxGeometry x="1060" y="-1670" width="120" height="60" as="geometry" />
        </mxCell>
        <mxCell id="VmlftcJI-n3ChJxppmFd-52" value="" style="endArrow=none;html=1;rounded=0;entryX=0.5;entryY=1;entryDx=0;entryDy=0;" parent="1" target="VmlftcJI-n3ChJxppmFd-51" edge="1">
          <mxGeometry width="50" height="50" relative="1" as="geometry">
            <mxPoint x="1120" y="-810" as="sourcePoint" />
            <mxPoint x="1080" y="-1320" as="targetPoint" />
          </mxGeometry>
        </mxCell>
        <mxCell id="VmlftcJI-n3ChJxppmFd-55" value="" style="html=1;points=[[0,0,0,0,5],[0,1,0,0,-5],[1,0,0,0,5],[1,1,0,0,-5]];perimeter=orthogonalPerimeter;outlineConnect=0;targetShapes=umlLifeline;portConstraint=eastwest;newEdgeStyle={&quot;curved&quot;:0,&quot;rounded&quot;:0};" parent="1" vertex="1">
          <mxGeometry x="298.75" y="-1460" width="10" height="80" as="geometry" />
        </mxCell>
        <mxCell id="VmlftcJI-n3ChJxppmFd-56" value="&lt;font style=&quot;font-size: 14px;&quot;&gt;crearFormulario()&lt;/font&gt;" style="html=1;verticalAlign=bottom;endArrow=block;curved=0;rounded=0;entryX=0;entryY=0;entryDx=0;entryDy=5;" parent="1" target="VmlftcJI-n3ChJxppmFd-55" edge="1">
          <mxGeometry x="-0.0028" relative="1" as="geometry">
            <mxPoint x="55" y="-1455" as="sourcePoint" />
            <mxPoint as="offset" />
          </mxGeometry>
        </mxCell>
        <mxCell id="VmlftcJI-n3ChJxppmFd-57" value="&lt;font style=&quot;font-size: 14px;&quot;&gt;return formulario vacío&lt;/font&gt;" style="html=1;verticalAlign=bottom;endArrow=open;dashed=1;endSize=8;curved=0;rounded=0;exitX=0;exitY=1;exitDx=0;exitDy=-5;" parent="1" source="VmlftcJI-n3ChJxppmFd-55" edge="1">
          <mxGeometry relative="1" as="geometry">
            <mxPoint x="52" y="-1385" as="targetPoint" />
          </mxGeometry>
        </mxCell>
        <mxCell id="VmlftcJI-n3ChJxppmFd-61" value="" style="html=1;points=[[0,0,0,0,5],[0,1,0,0,-5],[1,0,0,0,5],[1,1,0,0,-5]];perimeter=orthogonalPerimeter;outlineConnect=0;targetShapes=umlLifeline;portConstraint=eastwest;newEdgeStyle={&quot;curved&quot;:0,&quot;rounded&quot;:0};" parent="1" vertex="1">
          <mxGeometry x="298.64" y="-1290" width="10" height="330" as="geometry" />
        </mxCell>
        <mxCell id="VmlftcJI-n3ChJxppmFd-62" value="&lt;span style=&quot;font-size: 14px;&quot;&gt;agregarCampoAFormulario()&lt;/span&gt;" style="html=1;verticalAlign=bottom;endArrow=block;curved=0;rounded=0;entryX=0;entryY=0;entryDx=0;entryDy=5;exitX=0.607;exitY=0.045;exitDx=0;exitDy=0;exitPerimeter=0;" parent="1" target="VmlftcJI-n3ChJxppmFd-61" edge="1">
          <mxGeometry relative="1" as="geometry">
            <mxPoint x="53.00135000000013" y="-1283.8817600000004" as="sourcePoint" />
          </mxGeometry>
        </mxCell>
        <mxCell id="VmlftcJI-n3ChJxppmFd-63" value="&lt;font style=&quot;font-size: 14px;&quot;&gt;return campo&lt;/font&gt;" style="html=1;verticalAlign=bottom;endArrow=open;dashed=1;endSize=8;curved=0;rounded=0;exitX=0;exitY=1;exitDx=0;exitDy=-5;" parent="1" source="VmlftcJI-n3ChJxppmFd-61" edge="1">
          <mxGeometry x="0.0001" relative="1" as="geometry">
            <mxPoint x="54" y="-965" as="targetPoint" />
            <mxPoint as="offset" />
          </mxGeometry>
        </mxCell>
        <mxCell id="VmlftcJI-n3ChJxppmFd-67" value="&lt;span style=&quot;font-size: 14px;&quot;&gt;Pantalla de crear&lt;/span&gt;&lt;div&gt;&lt;span style=&quot;font-size: 14px;&quot;&gt;formulario&lt;/span&gt;&lt;/div&gt;" style="rounded=1;whiteSpace=wrap;html=1;" parent="1" vertex="1">
          <mxGeometry x="710" y="-1660" width="120" height="60" as="geometry" />
        </mxCell>
        <mxCell id="VmlftcJI-n3ChJxppmFd-68" value="" style="endArrow=none;html=1;rounded=0;entryX=0.5;entryY=1;entryDx=0;entryDy=0;" parent="1" source="VmlftcJI-n3ChJxppmFd-75" target="VmlftcJI-n3ChJxppmFd-67" edge="1">
          <mxGeometry width="50" height="50" relative="1" as="geometry">
            <mxPoint x="770" y="-774.0000697544643" as="sourcePoint" />
            <mxPoint x="730" y="-1310" as="targetPoint" />
          </mxGeometry>
        </mxCell>
        <mxCell id="VmlftcJI-n3ChJxppmFd-69" value="" style="html=1;points=[[0,0,0,0,5],[0,1,0,0,-5],[1,0,0,0,5],[1,1,0,0,-5]];perimeter=orthogonalPerimeter;outlineConnect=0;targetShapes=umlLifeline;portConstraint=eastwest;newEdgeStyle={&quot;curved&quot;:0,&quot;rounded&quot;:0};" parent="1" vertex="1">
          <mxGeometry x="298.64" y="-1130" width="10" height="80" as="geometry" />
        </mxCell>
        <mxCell id="VmlftcJI-n3ChJxppmFd-70" value="&lt;font style=&quot;font-size: 14px;&quot;&gt;modificarCampo()&lt;/font&gt;" style="html=1;verticalAlign=bottom;endArrow=block;curved=0;rounded=0;entryX=0;entryY=0;entryDx=0;entryDy=5;exitX=0.468;exitY=-0.01;exitDx=0;exitDy=0;exitPerimeter=0;" parent="1" edge="1">
          <mxGeometry relative="1" as="geometry">
            <mxPoint x="53.1997000000004" y="-1124.3685200000002" as="sourcePoint" />
            <mxPoint x="297.49000000000007" y="-1127.94" as="targetPoint" />
          </mxGeometry>
        </mxCell>
        <mxCell id="VmlftcJI-n3ChJxppmFd-71" value="&lt;font style=&quot;font-size: 14px;&quot;&gt;return campo modificado&lt;/font&gt;" style="html=1;verticalAlign=bottom;endArrow=open;dashed=1;endSize=8;curved=0;rounded=0;exitX=0;exitY=1;exitDx=0;exitDy=-5;entryX=0.567;entryY=-0.07;entryDx=0;entryDy=0;entryPerimeter=0;" parent="1" edge="1">
          <mxGeometry relative="1" as="geometry">
            <mxPoint x="54.33790000000072" y="-1050.1076300000002" as="targetPoint" />
            <mxPoint x="297.49000000000007" y="-1057.94" as="sourcePoint" />
          </mxGeometry>
        </mxCell>
        <mxCell id="VmlftcJI-n3ChJxppmFd-72" value="&lt;font style=&quot;font-size: 14px;&quot;&gt;editCampo()&lt;/font&gt;" style="html=1;verticalAlign=bottom;endArrow=block;curved=0;rounded=0;entryX=0;entryY=0;entryDx=0;entryDy=5;" parent="1" target="VmlftcJI-n3ChJxppmFd-75" edge="1">
          <mxGeometry relative="1" as="geometry">
            <mxPoint x="307.49000000000007" y="-1117.94" as="sourcePoint" />
          </mxGeometry>
        </mxCell>
        <mxCell id="VmlftcJI-n3ChJxppmFd-73" value="&lt;font style=&quot;font-size: 14px;&quot;&gt;return ok&lt;/font&gt;" style="html=1;verticalAlign=bottom;endArrow=open;dashed=1;endSize=8;curved=0;rounded=0;exitX=0;exitY=1;exitDx=0;exitDy=-5;entryX=1;entryY=1;entryDx=0;entryDy=-5;entryPerimeter=0;" parent="1" source="VmlftcJI-n3ChJxppmFd-75" edge="1">
          <mxGeometry relative="1" as="geometry">
            <mxPoint x="307.49000000000007" y="-1057.94" as="targetPoint" />
          </mxGeometry>
        </mxCell>
        <mxCell id="VmlftcJI-n3ChJxppmFd-74" value="" style="endArrow=none;html=1;rounded=0;entryX=0.5;entryY=1;entryDx=0;entryDy=0;" parent="1" target="VmlftcJI-n3ChJxppmFd-75" edge="1">
          <mxGeometry width="50" height="50" relative="1" as="geometry">
            <mxPoint x="770" y="-774.0000697544643" as="sourcePoint" />
            <mxPoint x="770" y="-1600" as="targetPoint" />
          </mxGeometry>
        </mxCell>
        <mxCell id="VmlftcJI-n3ChJxppmFd-75" value="" style="html=1;points=[[0,0,0,0,5],[0,1,0,0,-5],[1,0,0,0,5],[1,1,0,0,-5]];perimeter=orthogonalPerimeter;outlineConnect=0;targetShapes=umlLifeline;portConstraint=eastwest;newEdgeStyle={&quot;curved&quot;:0,&quot;rounded&quot;:0};" parent="1" vertex="1">
          <mxGeometry x="764.0500000000001" y="-1122.94" width="10" height="60" as="geometry" />
        </mxCell>
        <mxCell id="VmlftcJI-n3ChJxppmFd-76" value="&lt;span style=&quot;font-size: 14px;&quot;&gt;guardarPlantillaCreada()&lt;/span&gt;" style="html=1;verticalAlign=bottom;endArrow=block;curved=0;rounded=0;entryX=0;entryY=0;entryDx=0;entryDy=5;" parent="1" target="VmlftcJI-n3ChJxppmFd-78" edge="1">
          <mxGeometry relative="1" as="geometry">
            <mxPoint x="51" y="-891.1" as="sourcePoint" />
          </mxGeometry>
        </mxCell>
        <mxCell id="VmlftcJI-n3ChJxppmFd-77" value="&lt;font style=&quot;font-size: 14px;&quot;&gt;return formulario&lt;/font&gt;" style="html=1;verticalAlign=bottom;endArrow=open;dashed=1;endSize=8;curved=0;rounded=0;exitX=0;exitY=1;exitDx=0;exitDy=-5;entryX=0.377;entryY=-0.055;entryDx=0;entryDy=0;entryPerimeter=0;" parent="1" source="VmlftcJI-n3ChJxppmFd-78" edge="1">
          <mxGeometry relative="1" as="geometry">
            <mxPoint x="50" y="-816.1" as="targetPoint" />
          </mxGeometry>
        </mxCell>
        <mxCell id="VmlftcJI-n3ChJxppmFd-78" value="" style="html=1;points=[[0,0,0,0,5],[0,1,0,0,-5],[1,0,0,0,5],[1,1,0,0,-5]];perimeter=orthogonalPerimeter;outlineConnect=0;targetShapes=umlLifeline;portConstraint=eastwest;newEdgeStyle={&quot;curved&quot;:0,&quot;rounded&quot;:0};" parent="1" vertex="1">
          <mxGeometry x="293.75" y="-896.1" width="10" height="80" as="geometry" />
        </mxCell>
        <mxCell id="VmlftcJI-n3ChJxppmFd-79" value="&lt;font style=&quot;font-size: 14px;&quot;&gt;insert form&lt;/font&gt;" style="html=1;verticalAlign=bottom;endArrow=block;curved=0;rounded=0;entryX=0;entryY=0;entryDx=0;entryDy=5;entryPerimeter=0;" parent="1" target="VmlftcJI-n3ChJxppmFd-81" edge="1">
          <mxGeometry x="0.0003" relative="1" as="geometry">
            <mxPoint x="305" y="-886.1" as="sourcePoint" />
            <mxPoint as="offset" />
            <mxPoint x="1110" y="-921.1" as="targetPoint" />
          </mxGeometry>
        </mxCell>
        <mxCell id="VmlftcJI-n3ChJxppmFd-80" value="&lt;font style=&quot;font-size: 14px;&quot;&gt;return ok&lt;/font&gt;" style="html=1;verticalAlign=bottom;endArrow=open;dashed=1;endSize=8;curved=0;rounded=0;exitX=0;exitY=1;exitDx=0;exitDy=-5;exitPerimeter=0;" parent="1" source="VmlftcJI-n3ChJxppmFd-81" edge="1">
          <mxGeometry relative="1" as="geometry">
            <mxPoint x="304" y="-851.1" as="targetPoint" />
            <mxPoint x="1110" y="-877.1" as="sourcePoint" />
          </mxGeometry>
        </mxCell>
        <mxCell id="VmlftcJI-n3ChJxppmFd-81" value="" style="html=1;points=[[0,0,0,0,5],[0,1,0,0,-5],[1,0,0,0,5],[1,1,0,0,-5]];perimeter=orthogonalPerimeter;outlineConnect=0;targetShapes=umlLifeline;portConstraint=eastwest;newEdgeStyle={&quot;curved&quot;:0,&quot;rounded&quot;:0};" parent="1" vertex="1">
          <mxGeometry x="1115" y="-900.0000000000001" width="10" height="50" as="geometry" />
        </mxCell>
        <mxCell id="VmlftcJI-n3ChJxppmFd-83" value="" style="html=1;points=[[0,0,0,0,5],[0,1,0,0,-5],[1,0,0,0,5],[1,1,0,0,-5]];perimeter=orthogonalPerimeter;outlineConnect=0;targetShapes=umlLifeline;portConstraint=eastwest;newEdgeStyle={&quot;curved&quot;:0,&quot;rounded&quot;:0};" parent="1" vertex="1">
          <mxGeometry x="763.85" y="-1450" width="10" height="60" as="geometry" />
        </mxCell>
        <mxCell id="VmlftcJI-n3ChJxppmFd-84" value="&lt;font style=&quot;font-size: 14px;&quot;&gt;createForm()&lt;/font&gt;" style="html=1;verticalAlign=bottom;endArrow=block;curved=0;rounded=0;entryX=0;entryY=0;entryDx=0;entryDy=5;" parent="1" source="VmlftcJI-n3ChJxppmFd-55" target="VmlftcJI-n3ChJxppmFd-83" edge="1">
          <mxGeometry relative="1" as="geometry">
            <mxPoint x="693.85" y="-1445" as="sourcePoint" />
          </mxGeometry>
        </mxCell>
        <mxCell id="VmlftcJI-n3ChJxppmFd-85" value="&lt;font style=&quot;font-size: 14px;&quot;&gt;return form vacío&lt;/font&gt;" style="html=1;verticalAlign=bottom;endArrow=open;dashed=1;endSize=8;curved=0;rounded=0;entryX=1;entryY=1;entryDx=0;entryDy=-5;entryPerimeter=0;" parent="1" source="VmlftcJI-n3ChJxppmFd-83" target="VmlftcJI-n3ChJxppmFd-55" edge="1">
          <mxGeometry relative="1" as="geometry">
            <mxPoint x="693.85" y="-1375" as="targetPoint" />
          </mxGeometry>
        </mxCell>
        <mxCell id="VmlftcJI-n3ChJxppmFd-86" value="" style="html=1;points=[[0,0,0,0,5],[0,1,0,0,-5],[1,0,0,0,5],[1,1,0,0,-5]];perimeter=orthogonalPerimeter;outlineConnect=0;targetShapes=umlLifeline;portConstraint=eastwest;newEdgeStyle={&quot;curved&quot;:0,&quot;rounded&quot;:0};" parent="1" vertex="1">
          <mxGeometry x="764.0500000000001" y="-1290" width="10" height="60" as="geometry" />
        </mxCell>
        <mxCell id="VmlftcJI-n3ChJxppmFd-87" value="&lt;span style=&quot;font-size: 14px;&quot;&gt;insert Campo&lt;/span&gt;" style="html=1;verticalAlign=bottom;endArrow=block;curved=0;rounded=0;entryX=0;entryY=0;entryDx=0;entryDy=5;" parent="1" source="VmlftcJI-n3ChJxppmFd-61" target="VmlftcJI-n3ChJxppmFd-86" edge="1">
          <mxGeometry relative="1" as="geometry">
            <mxPoint x="694.0500000000001" y="-1285" as="sourcePoint" />
          </mxGeometry>
        </mxCell>
        <mxCell id="VmlftcJI-n3ChJxppmFd-88" value="&lt;font style=&quot;font-size: 14px;&quot;&gt;return campo&lt;/font&gt;" style="html=1;verticalAlign=bottom;endArrow=open;dashed=1;endSize=8;curved=0;rounded=0;" parent="1" source="VmlftcJI-n3ChJxppmFd-86" edge="1">
          <mxGeometry x="-0.0576" y="-10" relative="1" as="geometry">
            <mxPoint x="310.2" y="-1230" as="targetPoint" />
            <mxPoint as="offset" />
          </mxGeometry>
        </mxCell>
        <mxCell id="VmlftcJI-n3ChJxppmFd-89" value="Loop" style="shape=umlFrame;whiteSpace=wrap;html=1;pointerEvents=0;" parent="1" vertex="1">
          <mxGeometry x="-30" y="-1360" width="1230" height="440" as="geometry" />
        </mxCell>
        <mxCell id="VmlftcJI-n3ChJxppmFd-90" value="&lt;b&gt;&lt;font style=&quot;font-size: 14px;&quot;&gt;[ Mientras el anfitrión quiera agregar más campos ]&lt;/font&gt;&lt;/b&gt;" style="text;html=1;align=center;verticalAlign=middle;resizable=0;points=[];autosize=1;strokeColor=none;fillColor=none;" parent="1" vertex="1">
          <mxGeometry x="85" y="-1350" width="360" height="30" as="geometry" />
        </mxCell>
        <mxCell id="VmlftcJI-n3ChJxppmFd-91" value="ALT" style="shape=umlFrame;whiteSpace=wrap;html=1;pointerEvents=0;" parent="1" vertex="1">
          <mxGeometry x="-20" y="-1190" width="1190" height="250" as="geometry" />
        </mxCell>
        <mxCell id="VmlftcJI-n3ChJxppmFd-92" value="&lt;b&gt;&lt;font style=&quot;font-size: 14px;&quot;&gt;[ Anfitrión quiere modificar campo ]&lt;/font&gt;&lt;/b&gt;" style="text;html=1;align=center;verticalAlign=middle;resizable=0;points=[];autosize=1;strokeColor=none;fillColor=none;" parent="1" vertex="1">
          <mxGeometry x="48.75" y="-1187.94" width="260" height="30" as="geometry" />
        </mxCell>
        <mxCell id="VmlftcJI-n3ChJxppmFd-93" value="" style="endArrow=none;dashed=1;html=1;rounded=0;" parent="1" edge="1">
          <mxGeometry width="50" height="50" relative="1" as="geometry">
            <mxPoint x="-100" y="-1020" as="sourcePoint" />
            <mxPoint x="1200" y="-1030" as="targetPoint" />
          </mxGeometry>
        </mxCell>
        <mxCell id="VmlftcJI-n3ChJxppmFd-94" value="&lt;b style=&quot;forced-color-adjust: none; color: rgb(0, 0, 0); font-family: Helvetica; font-size: 12px; font-style: normal; font-variant-ligatures: normal; font-variant-caps: normal; letter-spacing: normal; orphans: 2; text-align: center; text-indent: 0px; text-transform: none; widows: 2; word-spacing: 0px; -webkit-text-stroke-width: 0px; white-space: nowrap; background-color: rgb(251, 251, 251); text-decoration-thickness: initial; text-decoration-style: initial; text-decoration-color: initial;&quot;&gt;&lt;font style=&quot;forced-color-adjust: none; font-size: 14px;&quot;&gt;[ Si no ]&lt;/font&gt;&lt;/b&gt;" style="text;whiteSpace=wrap;html=1;" parent="1" vertex="1">
          <mxGeometry x="120" y="-1020" width="270" height="40" as="geometry" />
        </mxCell>
      </root>
    </mxGraphModel>
  </diagram>
</mxfile>
